<?xml version="1.0" encoding="UTF-8" standalone="no"?>
<!-- Created with Inkscape (http://www.inkscape.org/) -->

<svg
   width="193.93462mm"
   height="99.498001mm"
   viewBox="0 0 193.93462 99.498001"
   version="1.1"
   id="svg3784"
   inkscape:version="1.1 (c68e22c387, 2021-05-23)"
   sodipodi:docname="noqou-alt-green.svg"
   xmlns:inkscape="http://www.inkscape.org/namespaces/inkscape"
   xmlns:sodipodi="http://sodipodi.sourceforge.net/DTD/sodipodi-0.dtd"
   xmlns="http://www.w3.org/2000/svg"
   xmlns:svg="http://www.w3.org/2000/svg">
  <sodipodi:namedview
     id="namedview3786"
     pagecolor="#ffffff"
     bordercolor="#666666"
     borderopacity="1.0"
     inkscape:pageshadow="2"
     inkscape:pageopacity="0.0"
     inkscape:pagecheckerboard="0"
     inkscape:document-units="mm"
     showgrid="false"
     fit-margin-top="0"
     fit-margin-left="0"
     fit-margin-right="0"
     fit-margin-bottom="0"
     inkscape:zoom="0.53629349"
     inkscape:cx="517.44055"
     inkscape:cy="472.68894"
     inkscape:window-width="1600"
     inkscape:window-height="829"
     inkscape:window-x="-8"
     inkscape:window-y="-8"
     inkscape:window-maximized="1"
     inkscape:current-layer="layer1" />
  <defs
     id="defs3781" />
  <g
     inkscape:label="Calque 1"
     inkscape:groupmode="layer"
     id="layer1"
     transform="translate(31.844394,-23.267603)">
    <g
       id="g4150">
      <g
         id="g865-4-1"
         style="fill:#40f99b;fill-opacity:1"
         transform="matrix(2.0307747,0,0,2.0307747,-72.3334,-268.21758)"
         inkscape:export-xdpi="90"
         inkscape:export-ydpi="90">
        <text
           xml:space="preserve"
           style="font-size:9.7821px;line-height:1.25;font-family:Futura;-inkscape-font-specification:Futura;letter-spacing:0px;word-spacing:0px;fill:#40f99b;fill-opacity:1;stroke-width:0.333481"
           x="40.825893"
           y="170.57007"
           id="text835-9-4"
           transform="scale(0.92927977,1.0761022)"><tspan
             sodipodi:role="line"
             id="tspan833-4-2"
             x="40.825893"
             y="170.57007"
             style="font-style:normal;font-variant:normal;font-weight:bold;font-stretch:normal;font-size:32.0142px;font-family:Futura;-inkscape-font-specification:'Futura Bold';fill:#40f99b;fill-opacity:1;stroke-width:0.333481">o</tspan></text>
        <text
           xml:space="preserve"
           style="font-size:9.7821px;line-height:1.25;font-family:Futura;-inkscape-font-specification:Futura;letter-spacing:0px;word-spacing:0px;fill:#40f99b;fill-opacity:1;stroke-width:0.333481"
           x="19.534166"
           y="170.71774"
           id="text835-9-4-0"
           transform="scale(0.92927977,1.0761022)"><tspan
             sodipodi:role="line"
             id="tspan833-4-2-3"
             x="19.534166"
             y="170.71774"
             style="font-style:normal;font-variant:normal;font-weight:bold;font-stretch:normal;font-size:32.0142px;font-family:Futura;-inkscape-font-specification:'Futura Bold';fill:#40f99b;fill-opacity:1;stroke-width:0.333481">noqou</tspan></text>
      </g>
      <path
         id="path26127-0-4"
         style="fill:#40f99b;fill-opacity:1;stroke:none;stroke-width:1.87632"
         d="M 53.314155,47.945906 C 52.641173,47.280211 51.81531,46.506803 51.108993,45.897908 45.298991,40.888608 38.2979,37.631102 30.797355,36.4466 c -2.297258,-0.362423 -2.92722,-0.411064 -5.87957,-0.45508 -2.952474,-0.04344 -3.583665,-0.01401 -5.890546,0.281163 -7.532167,0.963268 -14.6265379,4.013896 -20.5814192,8.850089 -1.4478063,1.175783 -3.39516,2.995027 -3.5869355,3.351097 -0.1064987,0.195995 -0.137483,0.375252 -0.160293,0.964903 -0.020552,0.434652 -0.00467,0.811305 0.035811,0.941346 0.089527,0.292591 3.0195963,3.348559 3.3697186,3.513943 0.3349727,0.158191 0.95093692,0.165338 1.29503361,0.01557 0.16933917,-0.07396 0.62376478,-0.456278 1.25961187,-1.059693 C 3.3614201,50.284098 6.0154799,48.434492 9.2836356,46.838865 12.855904,45.094746 16.6107,44.005766 20.527766,43.577139 c 2.050722,-0.224285 5.238319,-0.252965 7.010417,-0.06306 4.746541,0.508889 8.704619,1.687693 12.688059,3.779863 3.219796,1.691165 5.818022,3.618169 8.444055,6.262357 0.617163,0.622566 1.059491,1.017935 1.227133,1.096781 0.345841,0.163376 0.920389,0.174976 1.275073,0.02616 0.369959,-0.155388 3.387375,-3.108283 3.491943,-3.417409 0.04406,-0.128764 0.07069,-0.50453 0.0629,-0.939556 -0.0078,-0.590149 -0.03145,-0.770527 -0.131411,-0.969574 -0.09077,-0.180658 -0.609627,-0.74001 -1.281908,-1.40639 z m -9.134179,8.525813 c -0.760594,-0.726573 -1.671034,-1.535154 -2.392282,-2.100656 -1.824958,-1.43071 -4.29509,-2.863927 -6.553796,-3.803996 -6.086292,-2.533159 -12.993605,-2.854493 -19.360655,-0.899011 -2.829985,0.869132 -6.0011865,2.463203 -8.3544342,4.198789 -1.4751472,1.088046 -3.7388519,3.125877 -3.9904317,3.593117 -0.106343,0.196929 -0.137483,0.376015 -0.1602775,0.966195 -0.020241,0.407763 -0.00467,0.81062 0.028649,0.921354 0.07567,0.240759 3.1500573,3.436965 3.4653962,3.602786 l 0.00311,10e-4 c 0.2675391,0.140442 0.8829584,0.157506 1.2053661,0.0341 0.1604954,-0.06135 0.4434176,-0.304892 0.863309,-0.74219 2.2073251,-2.300575 5.3879471,-4.250124 8.6557911,-5.306547 2.376478,-0.768255 4.468119,-1.077163 7.03905,-1.039344 2.570932,0.03784 4.652094,0.407623 7.004937,1.24549 3.235256,1.152117 6.356385,3.195179 8.495109,5.559591 0.406781,0.449536 0.68332,0.700992 0.841402,0.767725 0.295441,0.123781 0.880747,0.135458 1.158267,0.02429 0.297869,-0.119422 3.528065,-3.26568 3.616939,-3.523441 0.0369,-0.110392 0.06415,-0.510353 0.0559,-0.919579 -0.0078,-0.590617 -0.03161,-0.770917 -0.131411,-0.970851 -0.118799,-0.237334 -0.729469,-0.881993 -1.490078,-1.608567 z m -8.244775,9.412134 c -0.40074,-0.41167 -0.903744,-0.883207 -1.367496,-1.270059 -1.806632,-1.509292 -4.188389,-2.710688 -6.472879,-3.264715 -1.260687,-0.305778 -2.010615,-0.393905 -3.543714,-0.416543 -1.533036,-0.02258 -2.285502,0.04344 -3.554752,0.311991 -2.299905,0.486656 -4.717612,1.61769 -6.565816,3.072332 -0.840546,0.661553 -2.020346,1.784834 -2.173462,2.068488 -0.108678,0.201647 -0.139507,0.375719 -0.162815,0.995903 -0.0274,0.653815 -0.01682,0.784011 0.08563,1.002552 0.15461,0.329585 3.04907,3.310459 3.380555,3.481075 l 6.39e-4,6.69e-4 c 0.319309,0.164295 0.93574,0.178417 1.276988,0.02943 0.145423,-0.06368 0.409942,-0.285632 0.644955,-0.542443 0.218727,-0.239513 0.650732,-0.63974 0.958582,-0.889529 3.092121,-2.504245 7.395868,-2.779383 10.75816,-0.687617 0.75544,0.469886 1.584028,1.167904 2.110449,1.779774 0.226559,0.263662 0.483931,0.494596 0.628109,0.56287 0.338149,0.159764 0.925963,0.163828 1.267272,0.0093 0.376669,-0.170335 3.442617,-3.17363 3.54348,-3.470394 0.104474,-0.308192 0.06555,-1.541662 -0.05808,-1.865269 -0.0559,-0.145423 -0.355712,-0.495888 -0.755892,-0.907808 z"
         inkscape:export-xdpi="90"
         inkscape:export-ydpi="90" />
      <rect
         style="fill:none;fill-opacity:0.843137;stroke-width:0.400935;stroke-linecap:square;paint-order:markers fill stroke"
         id="rect855"
         width="79.375"
         height="79.375"
         x="-13.004933"
         y="23.267603"
         inkscape:export-xdpi="96"
         inkscape:export-ydpi="96" />
    </g>
  </g>
</svg>
