<?xml version="1.0" encoding="UTF-8" standalone="no"?>
<!-- Created with Inkscape (http://www.inkscape.org/) -->

<svg
   width="193.93462mm"
   height="99.498016mm"
   viewBox="0 0 193.93462 99.498016"
   version="1.1"
   id="svg870"
   inkscape:version="1.1 (c68e22c387, 2021-05-23)"
   sodipodi:docname="noqou.svg"
   xmlns:inkscape="http://www.inkscape.org/namespaces/inkscape"
   xmlns:sodipodi="http://sodipodi.sourceforge.net/DTD/sodipodi-0.dtd"
   xmlns="http://www.w3.org/2000/svg"
   xmlns:svg="http://www.w3.org/2000/svg">
  <sodipodi:namedview
     id="namedview872"
     pagecolor="#ffffff"
     bordercolor="#666666"
     borderopacity="1.0"
     inkscape:pageshadow="2"
     inkscape:pageopacity="0.0"
     inkscape:pagecheckerboard="0"
     inkscape:document-units="mm"
     showgrid="false"
     fit-margin-top="0"
     fit-margin-left="0"
     fit-margin-right="0"
     fit-margin-bottom="0"
     inkscape:zoom="0.53629349"
     inkscape:cx="308.59968"
     inkscape:cy="269.44202"
     inkscape:window-width="1600"
     inkscape:window-height="829"
     inkscape:window-x="-8"
     inkscape:window-y="-8"
     inkscape:window-maximized="1"
     inkscape:current-layer="layer1" />
  <defs
     id="defs867" />
  <g
     inkscape:label="Calque 1"
     inkscape:groupmode="layer"
     id="layer1"
     transform="translate(-13.502942,-76.744394)">
    <g
       id="g3628"
       transform="translate(-4.9335548,29.107973)">
      <g
         id="g861"
         transform="matrix(1.5569986,0,0,1.5569986,-148.06007,-387.95564)"
         inkscape:export-xdpi="96"
         inkscape:export-ydpi="96">
        <g
           id="g865-4-1"
           style="fill:#000000"
           transform="matrix(1.3042881,0,0,1.3042881,80.929784,92.554279)"
           inkscape:export-xdpi="90"
           inkscape:export-ydpi="90">
          <text
             xml:space="preserve"
             style="font-size:9.7821px;line-height:1.25;font-family:Futura;-inkscape-font-specification:Futura;letter-spacing:0px;word-spacing:0px;fill:#000000;stroke-width:0.333481"
             x="40.825893"
             y="170.57007"
             id="text835-9-4"
             transform="scale(0.92927977,1.0761022)"><tspan
               sodipodi:role="line"
               id="tspan833-4-2"
               x="40.825893"
               y="170.57007"
               style="font-style:normal;font-variant:normal;font-weight:bold;font-stretch:normal;font-size:32.0142px;font-family:Futura;-inkscape-font-specification:'Futura Bold';fill:#000000;stroke-width:0.333481">o</tspan></text>
          <text
             xml:space="preserve"
             style="font-size:9.7821px;line-height:1.25;font-family:Futura;-inkscape-font-specification:Futura;letter-spacing:0px;word-spacing:0px;fill:#000000;fill-opacity:1;stroke-width:0.333481"
             x="19.534166"
             y="170.71774"
             id="text835-9-4-0"
             transform="scale(0.92927977,1.0761022)"><tspan
               sodipodi:role="line"
               id="tspan833-4-2-3"
               x="19.534166"
               y="170.71774"
               style="font-style:normal;font-variant:normal;font-weight:bold;font-stretch:normal;font-size:32.0142px;font-family:Futura;-inkscape-font-specification:'Futura Bold';fill:#000000;fill-opacity:1;stroke-width:0.333481">noqou</tspan></text>
        </g>
        <path
           id="path26127-0-4"
           style="fill:#000000;fill-opacity:1;stroke:none;stroke-width:1.20509"
           d="m 161.62835,295.61386 c -0.43223,-0.42755 -0.96265,-0.92428 -1.41629,-1.31535 -3.73154,-3.21728 -8.22807,-5.30945 -13.04538,-6.07021 -1.47544,-0.23277 -1.88004,-0.26401 -3.77622,-0.29228 -1.89626,-0.0279 -2.30165,-0.009 -3.78327,0.18058 -4.83762,0.61867 -9.39406,2.57797 -13.21865,5.68407 -0.92987,0.75516 -2.18058,1.92359 -2.30375,2.15228 -0.0684,0.12588 -0.0883,0.24101 -0.10295,0.61972 -0.0132,0.27916 -0.003,0.52107 0.023,0.60459 0.0575,0.18792 1.93937,2.15065 2.16424,2.25687 0.21514,0.1016 0.61075,0.10619 0.83175,0.01 0.10876,-0.0475 0.40062,-0.29305 0.809,-0.6806 1.73581,-1.64794 3.44041,-2.83587 5.53942,-3.86068 2.29433,-1.12018 4.70589,-1.81959 7.22167,-2.09488 1.3171,-0.14405 3.36437,-0.16247 4.50252,-0.0405 3.04852,0.32684 5.59064,1.08394 8.14905,2.42766 2.06795,1.08617 3.73669,2.32381 5.42329,4.02207 0.39638,0.39985 0.68047,0.65378 0.78814,0.70442 0.22212,0.10493 0.59113,0.11238 0.81893,0.0168 0.23761,-0.0998 2.17558,-1.99633 2.24274,-2.19487 0.0283,-0.0827 0.0454,-0.32404 0.0404,-0.60344 -0.005,-0.37903 -0.0202,-0.49488 -0.0844,-0.62272 -0.0583,-0.11603 -0.39154,-0.47528 -0.82332,-0.90327 z m -5.86653,5.4758 c -0.4885,-0.46665 -1.07324,-0.98597 -1.53647,-1.34917 -1.1721,-0.91889 -2.75857,-1.83939 -4.20925,-2.44316 -3.90899,-1.62695 -8.34529,-1.83333 -12.4346,-0.5774 -1.81759,0.55821 -3.85433,1.58202 -5.36573,2.69672 -0.94743,0.69881 -2.40132,2.00763 -2.5629,2.30772 -0.0683,0.12648 -0.0883,0.2415 -0.10294,0.62055 -0.013,0.26189 -0.003,0.52063 0.0184,0.59175 0.0486,0.15463 2.02316,2.20743 2.22569,2.31393 l 0.002,6.6e-4 c 0.17183,0.0902 0.56709,0.10116 0.77416,0.0219 0.10308,-0.0394 0.28479,-0.19582 0.55447,-0.47668 1.41768,-1.47757 3.46047,-2.72969 5.55928,-3.40819 1.52632,-0.49342 2.8697,-0.69182 4.52091,-0.66753 1.65121,0.0243 2.98786,0.2618 4.499,0.79993 2.07788,0.73996 4.08246,2.05214 5.45608,3.57071 0.26126,0.28872 0.43887,0.45022 0.5404,0.49308 0.18975,0.0795 0.56567,0.087 0.74391,0.0156 0.19131,-0.0767 2.26594,-2.09742 2.32302,-2.26297 0.0237,-0.0709 0.0412,-0.32778 0.0359,-0.59061 -0.005,-0.37933 -0.0203,-0.49513 -0.0844,-0.62354 -0.0763,-0.15243 -0.46851,-0.56647 -0.95702,-1.03312 z m -5.2953,6.04505 c -0.25738,-0.2644 -0.58044,-0.56725 -0.87829,-0.81571 -1.16033,-0.96936 -2.69004,-1.74097 -4.15728,-2.0968 -0.80969,-0.19639 -1.29134,-0.25299 -2.27599,-0.26753 -0.98461,-0.0145 -1.46789,0.0279 -2.28308,0.20038 -1.47714,0.31256 -3.02994,1.03898 -4.21697,1.97324 -0.53985,0.42489 -1.29759,1.14633 -1.39593,1.32851 -0.0698,0.12951 -0.0896,0.24131 -0.10457,0.63963 -0.0176,0.41992 -0.0108,0.50354 0.055,0.6439 0.0993,0.21168 1.9583,2.12618 2.1712,2.23576 l 4.1e-4,4.3e-4 c 0.20508,0.10552 0.60099,0.11459 0.82016,0.0189 0.0934,-0.0409 0.26329,-0.18345 0.41423,-0.34839 0.14048,-0.15383 0.41794,-0.41088 0.61566,-0.57131 1.98595,-1.60838 4.75008,-1.78509 6.90955,-0.44163 0.48519,0.30179 1.01736,0.7501 1.35546,1.14308 0.14551,0.16934 0.31081,0.31766 0.40341,0.36151 0.21718,0.10261 0.59471,0.10522 0.81392,0.006 0.24192,-0.1094 2.21106,-2.0383 2.27584,-2.2289 0.0671,-0.19794 0.0421,-0.99015 -0.0373,-1.19799 -0.0359,-0.0934 -0.22846,-0.31849 -0.48548,-0.58305 z"
           inkscape:export-xdpi="90"
           inkscape:export-ydpi="90" />
      </g>
      <rect
         style="fill:none;fill-opacity:0.843137;stroke-width:0.400935;stroke-linecap:square;paint-order:markers fill stroke"
         id="rect855"
         width="79.375"
         height="79.375"
         x="37.275955"
         y="47.636421"
         inkscape:export-xdpi="96"
         inkscape:export-ydpi="96" />
    </g>
  </g>
</svg>
